<svg width="800" height="900" viewBox="0 0 800 900" fill="none" xmlns="http://www.w3.org/2000/svg">
<path d="M33.3181 655.579L126.928 154.721H692.753L786.361 655.579H33.3181Z" stroke="#808080" stroke-width="16"/>
<mask id="path-2-inside-1" fill="white">
<path d="M238.717 207.725C238.717 207.725 238.717 6.00854 409.84 6.00854C580.963 6.00854 580.963 207.725 580.963 207.725"/>
</mask>
<path d="M238.717 207.725C254.717 207.725 254.717 207.731 254.717 207.736C254.717 207.737 254.717 207.741 254.717 207.743C254.717 207.745 254.717 207.745 254.717 207.742C254.717 207.736 254.717 207.717 254.717 207.687C254.717 207.626 254.718 207.519 254.72 207.366C254.724 207.059 254.733 206.571 254.752 205.912C254.789 204.595 254.865 202.6 255.021 200.026C255.334 194.871 255.964 187.421 257.233 178.447C259.782 160.417 264.852 136.655 274.837 113.115C284.824 89.5682 299.457 66.8756 320.795 50.107C341.897 33.5241 370.458 22.0085 409.84 22.0085V-9.99146C363.66 -9.99146 328.049 3.70762 301.023 24.9466C274.233 45.9998 256.78 73.7364 245.377 100.619C233.972 127.508 228.346 154.176 225.548 173.967C224.143 183.904 223.436 192.213 223.08 198.09C222.902 201.031 222.811 203.37 222.765 205.008C222.742 205.827 222.73 206.471 222.723 206.928C222.72 207.156 222.718 207.338 222.718 207.471C222.717 207.538 222.717 207.593 222.717 207.635C222.717 207.656 222.717 207.674 222.717 207.689C222.717 207.697 222.717 207.706 222.717 207.71C222.717 207.718 222.717 207.725 238.717 207.725ZM409.84 22.0085C449.221 22.0085 477.782 33.5241 498.884 50.107C520.222 66.8756 534.855 89.5682 544.842 113.115C554.827 136.655 559.897 160.417 562.446 178.447C563.715 187.421 564.345 194.871 564.658 200.026C564.814 202.6 564.89 204.595 564.927 205.912C564.946 206.571 564.955 207.059 564.959 207.366C564.961 207.519 564.962 207.626 564.962 207.687C564.962 207.717 564.962 207.736 564.963 207.742C564.963 207.745 564.963 207.745 564.963 207.743C564.963 207.741 564.963 207.737 564.963 207.736C564.963 207.731 564.963 207.725 580.963 207.725C596.963 207.725 596.963 207.718 596.963 207.71C596.963 207.706 596.962 207.697 596.962 207.689C596.962 207.674 596.962 207.656 596.962 207.635C596.962 207.593 596.962 207.538 596.961 207.471C596.961 207.338 596.959 207.156 596.956 206.928C596.95 206.471 596.938 205.827 596.914 205.008C596.868 203.37 596.777 201.031 596.599 198.09C596.243 192.213 595.536 183.904 594.131 173.967C591.333 154.176 585.707 127.508 574.302 100.619C562.899 73.7364 545.447 45.9998 518.656 24.9466C491.63 3.70762 456.019 -9.99146 409.84 -9.99146V22.0085Z" fill="#7F7F7F" mask="url(#path-2-inside-1)"/>
<path d="M238.717 523.176C238.717 523.176 238.717 469.528 409.84 469.528C580.963 469.528 580.963 523.176 580.963 523.176" stroke="#7F7F7F" stroke-width="16"/>
<path d="M238.717 375.107C258.8 375.107 275.08 358.774 275.08 338.627C275.08 318.479 258.8 302.146 238.717 302.146C218.634 302.146 202.353 318.479 202.353 338.627C202.353 358.774 218.634 375.107 238.717 375.107Z" fill="#7F7F7F"/>
<path d="M580.963 375.107C601.046 375.107 617.326 358.774 617.326 338.627C617.326 318.479 601.046 302.146 580.963 302.146C560.879 302.146 544.599 318.479 544.599 338.627C544.599 358.774 560.879 375.107 580.963 375.107Z" fill="#7F7F7F"/>
<path d="M14.5355 768.24V762.961L21.3453 761.785V713.459H7.55855L6.34696 721.927H0.163818V707.215H50.7153V721.927H44.6157L43.3622 713.459H29.5756V761.785L36.3854 762.961V768.24H14.5355ZM54.35 768.24V762.961L61.1598 761.785V729.386L54.35 728.215V722.893H69.39V761.785L76.1998 762.961V768.24H54.35ZM60.7419 711.7V702.858H69.39V711.7H60.7419ZM99.6373 769.12C95.9611 769.12 92.7996 768.21 90.1536 766.395C87.5359 764.554 85.5303 761.996 84.1378 758.725C82.7453 755.455 82.0488 751.644 82.0488 747.283V746.403C82.0488 741.541 82.7453 737.279 84.1378 733.622C85.5303 729.961 87.5496 727.124 90.1956 725.112C92.8416 723.073 96.0167 722.052 99.7211 722.052C102.395 722.052 104.748 722.554 106.782 723.562C108.842 724.541 110.597 725.966 112.045 727.837V709.352L105.236 708.18V702.858H120.276V761.785L127.085 762.961V768.24H113.132L112.463 762.833C109.455 767.026 105.18 769.12 99.6373 769.12ZM101.726 762.416C104.177 762.416 106.238 761.854 107.909 760.738C109.581 759.622 110.959 758.043 112.045 756V734.961C110.987 733.06 109.609 731.554 107.909 730.433C106.211 729.318 104.177 728.76 101.81 728.76C97.8828 728.76 94.972 730.395 93.0781 733.661C91.212 736.931 90.279 741.18 90.279 746.403V747.283C90.279 751.837 91.212 755.498 93.0781 758.266C94.9442 761.03 97.8272 762.416 101.726 762.416ZM147.39 769.12C142.683 769.12 139.104 767.974 136.653 765.682C134.202 763.365 132.976 760.107 132.976 755.918C132.976 751.614 134.731 748.163 138.24 745.567C141.75 742.94 146.624 741.627 152.863 741.627H160.926V737.185C160.926 734.446 160.09 732.322 158.419 730.811C156.776 729.305 154.45 728.549 151.442 728.549C149.548 728.549 147.905 728.785 146.513 729.262C145.12 729.708 143.852 730.339 142.711 731.146L141.833 737.476H135.483V727.082C139.577 723.73 144.939 722.052 151.568 722.052C157.055 722.052 161.357 723.365 164.477 725.991C167.597 728.618 169.156 732.378 169.156 737.266V759.103C169.156 759.691 169.156 760.262 169.156 760.82C169.184 761.382 169.226 761.94 169.281 762.498L173.668 762.961V768.24H161.845C161.372 765.948 161.079 763.867 160.968 761.996C159.38 764.034 157.389 765.738 154.993 767.107C152.626 768.451 150.092 769.12 147.39 769.12ZM148.601 762.206C151.331 762.206 153.823 761.549 156.08 760.236C158.335 758.923 159.951 757.343 160.926 755.498V747.283H152.57C148.783 747.283 145.941 748.193 144.048 750.009C142.154 751.824 141.206 753.85 141.206 756.086C141.206 760.163 143.672 762.206 148.601 762.206ZM179.642 768.24V762.961L186.452 761.785V709.352L179.642 708.18V702.858H194.682V744.979L210.684 729.009L210.892 728.76L206.046 728.215V722.893H225.515V728.215L219.707 729.305L207.007 742.129L222.59 761.953L229.108 762.961V768.24H208.678V762.961L213.274 762.416L213.148 762.249L201.701 747.451L194.682 754.536V761.785L201.492 762.961V768.24H179.642ZM269.799 769.12C265.093 769.12 261.514 767.974 259.063 765.682C256.611 763.365 255.386 760.107 255.386 755.918C255.386 751.614 257.141 748.163 260.65 745.567C264.16 742.94 269.034 741.627 275.272 741.627H283.336V737.185C283.336 734.446 282.5 732.322 280.829 730.811C279.186 729.305 276.86 728.549 273.852 728.549C271.958 728.549 270.315 728.785 268.922 729.262C267.529 729.708 266.262 730.339 265.121 731.146L264.243 737.476H257.893V727.082C261.987 723.73 267.349 722.052 273.977 722.052C279.464 722.052 283.767 723.365 286.887 725.991C290.006 728.618 291.566 732.378 291.566 737.266V759.103C291.566 759.691 291.566 760.262 291.566 760.82C291.594 761.382 291.636 761.94 291.691 762.498L296.078 762.961V768.24H284.255C283.781 765.948 283.489 763.867 283.378 761.996C281.79 764.034 279.799 765.738 277.403 767.107C275.036 768.451 272.501 769.12 269.799 769.12ZM271.011 762.206C273.74 762.206 276.233 761.549 278.489 760.236C280.745 758.923 282.361 757.343 283.336 755.498V747.283H274.98C271.192 747.283 268.351 748.193 266.457 750.009C264.564 751.824 263.616 753.85 263.616 756.086C263.616 760.163 266.081 762.206 271.011 762.206ZM320.226 769.12C316.549 769.12 313.388 768.21 310.742 766.395C308.124 764.554 306.119 761.996 304.726 758.725C303.334 755.455 302.637 751.644 302.637 747.283V746.403C302.637 741.541 303.334 737.279 304.726 733.622C306.119 729.961 308.138 727.124 310.784 725.112C313.43 723.073 316.605 722.052 320.309 722.052C322.983 722.052 325.337 722.554 327.37 723.562C329.431 724.541 331.186 725.966 332.634 727.837V709.352L325.824 708.18V702.858H340.864V761.785L347.674 762.961V768.24H333.72L333.052 762.833C330.044 767.026 325.768 769.12 320.226 769.12ZM322.315 762.416C324.765 762.416 326.827 761.854 328.498 760.738C330.169 759.622 331.547 758.043 332.634 756V734.961C331.575 733.06 330.197 731.554 328.498 730.433C326.799 729.318 324.765 728.76 322.398 728.76C318.471 728.76 315.56 730.395 313.666 733.661C311.8 736.931 310.867 741.18 310.867 746.403V747.283C310.867 751.837 311.8 755.498 313.666 758.266C315.532 761.03 318.415 762.416 322.315 762.416ZM367.978 769.12C363.271 769.12 359.692 767.974 357.241 765.682C354.79 763.365 353.565 760.107 353.565 755.918C353.565 751.614 355.319 748.163 358.829 745.567C362.338 742.94 367.212 741.627 373.451 741.627H381.514V737.185C381.514 734.446 380.679 732.322 379.008 730.811C377.364 729.305 375.038 728.549 372.03 728.549C370.137 728.549 368.493 728.785 367.101 729.262C365.708 729.708 364.441 730.339 363.299 731.146L362.421 737.476H356.071V727.082C360.166 723.73 365.527 722.052 372.156 722.052C377.643 722.052 381.946 723.365 385.065 725.991C388.185 728.618 389.744 732.378 389.744 737.266V759.103C389.744 759.691 389.744 760.262 389.744 760.82C389.772 761.382 389.814 761.94 389.87 762.498L394.256 762.961V768.24H382.433C381.96 765.948 381.667 763.867 381.556 761.996C379.968 764.034 377.977 765.738 375.582 767.107C373.214 768.451 370.68 769.12 367.978 769.12ZM369.189 762.206C371.919 762.206 374.412 761.549 376.668 760.236C378.924 758.923 380.539 757.343 381.514 755.498V747.283H373.159C369.371 747.283 366.53 748.193 364.636 750.009C362.742 751.824 361.795 753.85 361.795 756.086C361.795 760.163 364.26 762.206 369.189 762.206ZM437.912 768.953C434.571 768.953 431.915 767.974 429.934 766.017C427.987 764.034 427.011 760.88 427.011 756.545V729.009H419.867V722.893H427.011V711.953H435.243V722.893H445.057V729.009H435.243V756.545C435.243 758.725 435.671 760.335 436.535 761.365C437.399 762.399 438.554 762.918 440.004 762.918C440.98 762.918 442.066 762.833 443.26 762.665C444.458 762.472 445.395 762.305 446.062 762.163L447.187 767.571C445.994 767.931 444.513 768.253 442.759 768.532C441.035 768.811 439.418 768.953 437.912 768.953ZM452.368 768.24V762.961L459.179 761.785V729.386L452.368 728.215V722.893H466.533L467.243 728.674L467.328 729.472C468.608 727.15 470.182 725.335 472.047 724.021C473.942 722.708 476.099 722.052 478.524 722.052C479.388 722.052 480.265 722.137 481.155 722.305C482.075 722.442 482.73 722.584 483.119 722.725L482.032 730.395L476.308 730.06C474.135 729.918 472.312 730.421 470.836 731.567C469.361 732.682 468.218 734.193 467.41 736.094V761.785L474.22 762.961V768.24H452.368ZM502.755 769.12C498.045 769.12 494.469 767.974 492.017 765.682C489.566 763.365 488.342 760.107 488.342 755.918C488.342 751.614 490.096 748.163 493.604 745.567C497.112 742.94 501.989 741.627 508.227 741.627H516.291V737.185C516.291 734.446 515.457 732.322 513.784 730.811C512.141 729.305 509.814 728.549 506.807 728.549C504.911 728.549 503.269 728.785 501.878 729.262C500.484 729.708 499.217 730.339 498.075 731.146L497.198 737.476H490.849V727.082C494.943 723.73 500.304 722.052 506.931 722.052C512.419 722.052 516.723 723.365 519.842 725.991C522.961 728.618 524.522 732.378 524.522 737.266V759.103C524.522 759.691 524.522 760.262 524.522 760.82C524.548 761.382 524.59 761.94 524.646 762.498L529.031 762.961V768.24H517.211C516.736 765.948 516.445 763.867 516.334 761.996C514.742 764.034 512.753 765.738 510.357 767.107C507.992 768.451 505.455 769.12 502.755 769.12ZM503.966 762.206C506.695 762.206 509.189 761.549 511.444 760.236C513.699 758.923 515.316 757.343 516.291 755.498V747.283H507.936C504.146 747.283 501.305 748.193 499.414 750.009C497.519 751.824 496.569 753.85 496.569 756.086C496.569 760.163 499.038 762.206 503.966 762.206ZM535.423 768.24V762.961L542.233 761.785V729.386L535.423 728.215V722.893H549.587L550.173 729.64C551.675 727.236 553.557 725.378 555.812 724.064C558.096 722.725 560.685 722.052 563.585 722.052C568.458 722.052 572.231 723.494 574.905 726.369C577.579 729.219 578.913 733.635 578.913 739.614V761.785L585.724 762.961V768.24H563.876V762.961L570.687 761.785V739.781C570.687 735.785 569.891 732.948 568.304 731.275C566.742 729.597 564.351 728.76 561.117 728.76C558.751 728.76 556.646 729.33 554.811 730.476C553.001 731.622 551.551 733.189 550.464 735.172V761.785L557.275 762.961V768.24H535.423ZM609.874 769.12C606.836 769.12 603.996 768.811 601.352 768.197C598.704 767.584 595.893 766.635 592.911 765.348L592.826 754.575H599.055L600.599 761.073C603.551 762.305 606.644 762.918 609.874 762.918C613.215 762.918 615.611 762.275 617.061 760.991C618.507 759.704 619.23 758.112 619.23 756.21C619.23 754.425 618.494 752.914 617.018 751.687C615.568 750.429 612.924 749.365 609.078 748.498C603.619 747.24 599.594 745.567 597.005 743.472C594.443 741.348 593.164 738.524 593.164 735.004C593.164 732.545 593.874 730.352 595.294 728.425C596.715 726.468 598.691 724.918 601.224 723.773C603.761 722.627 606.712 722.052 610.084 722.052C613.506 722.052 616.432 722.442 618.854 723.227C621.305 724.009 623.435 725.056 625.249 726.369L625.664 736.721H619.482L618.143 730.687C617.172 729.961 616.013 729.403 614.678 729.009C613.339 728.618 611.808 728.425 610.084 728.425C607.521 728.425 605.429 729.026 603.816 730.227C602.229 731.429 601.433 732.936 601.433 734.751C601.433 735.815 601.656 736.738 602.101 737.519C602.576 738.3 603.465 739.013 604.774 739.657C606.084 740.27 608.009 740.884 610.541 741.502C616.834 742.983 621.224 744.867 623.701 747.159C626.208 749.451 627.461 752.27 627.461 755.627C627.461 759.451 626.041 762.665 623.2 765.266C620.385 767.837 615.944 769.12 609.874 769.12ZM648.894 769.12C644.188 769.12 640.608 767.974 638.156 765.682C635.705 763.365 634.481 760.107 634.481 755.918C634.481 751.614 636.235 748.163 639.743 745.567C643.256 742.94 648.128 741.627 654.366 741.627H662.43V737.185C662.43 734.446 661.596 732.322 659.923 730.811C658.28 729.305 655.953 728.549 652.946 728.549C651.05 728.549 649.408 728.785 648.017 729.262C646.623 729.708 645.356 730.339 644.214 731.146L643.337 737.476H636.988V727.082C641.082 723.73 646.443 722.052 653.07 722.052C658.558 722.052 662.862 723.365 665.981 725.991C669.1 728.618 670.661 732.378 670.661 737.266V759.103C670.661 759.691 670.661 760.262 670.661 760.82C670.687 761.382 670.73 761.94 670.785 762.498L675.17 762.961V768.24H663.35C662.875 765.948 662.584 763.867 662.473 761.996C660.886 764.034 658.892 765.738 656.496 767.107C654.131 768.451 651.594 769.12 648.894 769.12ZM650.105 762.206C652.834 762.206 655.328 761.549 657.583 760.236C659.842 758.923 661.455 757.343 662.43 755.498V747.283H654.075C650.285 747.283 647.444 748.193 645.553 750.009C643.658 751.824 642.712 753.85 642.712 756.086C642.712 760.163 645.177 762.206 650.105 762.206ZM681.147 768.24V762.961L687.957 761.785V709.352L681.147 708.18V702.858H696.188V744.979L712.188 729.009L712.398 728.76L707.551 728.215V722.893H727.02V728.215L721.211 729.305L708.509 742.129L724.094 761.953L730.61 762.961V768.24H710.182V762.961L714.777 762.416L714.653 762.249L703.204 747.451L696.188 754.536V761.785L702.995 762.961V768.24H681.147ZM753.673 769.12C750.635 769.12 747.795 768.811 745.151 768.197C742.503 767.584 739.692 766.635 736.71 765.348L736.629 754.575H742.854L744.398 761.073C747.35 762.305 750.443 762.918 753.673 762.918C757.014 762.918 759.41 762.275 760.86 760.991C762.306 759.704 763.033 758.112 763.033 756.21C763.033 754.425 762.293 752.914 760.817 751.687C759.367 750.429 756.723 749.365 752.881 748.498C747.423 747.24 743.397 745.567 740.804 743.472C738.242 741.348 736.963 738.524 736.963 735.004C736.963 732.545 737.673 730.352 739.093 728.425C740.514 726.468 742.49 724.918 745.027 723.773C747.559 722.627 750.511 722.052 753.882 722.052C757.309 722.052 760.231 722.442 762.657 723.227C765.108 724.009 767.239 725.056 769.048 726.369L769.463 736.721H763.281L761.947 730.687C760.971 729.961 759.816 729.403 758.477 729.009C757.142 728.618 755.611 728.425 753.882 728.425C751.32 728.425 749.232 729.026 747.615 730.227C746.028 731.429 745.232 732.936 745.232 734.751C745.232 735.815 745.459 736.738 745.904 737.519C746.374 738.3 747.269 739.013 748.578 739.657C749.887 740.27 751.808 740.884 754.34 741.502C760.638 742.983 765.023 744.867 767.504 747.159C770.007 749.451 771.26 752.27 771.26 755.627C771.26 759.451 769.84 762.665 766.999 765.266C764.188 767.837 759.743 769.12 753.673 769.12ZM777.78 768.24V762.961L784.591 761.785V729.386L777.78 728.215V722.893H792.817V761.785L799.628 762.961V768.24H777.78ZM784.171 711.7V702.858H792.817V711.7H784.171ZM80.9626 899.862C80.3222 899.862 79.4863 899.777 78.4561 899.609C77.4255 899.468 76.6315 899.33 76.0745 899.189L76.91 892.695C77.3836 892.751 78.0381 892.79 78.8736 892.82C79.7092 892.875 80.2803 892.901 80.5866 892.901C82.3414 892.901 83.7618 892.232 84.848 890.893C85.962 889.549 86.9926 887.721 87.9397 885.399L89.9029 880.622L73.9021 842.189L69.0559 841.519V836.197H88.0232V841.519L82.5502 842.356L91.3652 865.03L93.4961 870.94H93.7468L104.191 842.356L98.4257 841.519V836.197H117.017V841.519L112.338 842.189L94.5404 888.502C93.2873 891.798 91.6159 894.511 89.5273 896.635C87.4383 898.785 84.5836 899.862 80.9626 899.862ZM134.898 882.425C130.191 882.425 126.612 881.279 124.161 878.987C121.71 876.669 120.485 873.412 120.485 869.223C120.485 864.918 122.239 861.468 125.749 858.871C129.258 856.245 134.132 854.931 140.371 854.931H148.434V850.489C148.434 847.751 147.599 845.627 145.927 844.116C144.284 842.609 141.959 841.854 138.951 841.854C137.057 841.854 135.414 842.09 134.021 842.566C132.628 843.013 131.361 843.644 130.219 844.451L129.342 850.781H122.991V840.386C127.085 837.034 132.447 835.356 139.076 835.356C144.563 835.356 148.866 836.669 151.986 839.296C155.105 841.923 156.664 845.682 156.664 850.571V872.408C156.664 872.996 156.664 873.566 156.664 874.124C156.692 874.687 156.734 875.245 156.79 875.802L161.177 876.266V881.545H149.353C148.88 879.253 148.587 877.172 148.476 875.3C146.889 877.339 144.897 879.043 142.502 880.412C140.134 881.755 137.6 882.425 134.898 882.425ZM136.11 875.511C138.839 875.511 141.332 874.854 143.588 873.541C145.844 872.227 147.459 870.648 148.434 868.802V860.588H140.079C136.291 860.588 133.45 861.498 131.556 863.313C129.662 865.129 128.715 867.154 128.715 869.39C128.715 873.468 131.18 875.511 136.11 875.511ZM167.568 881.545V876.266L174.378 875.09V842.691L167.568 841.519V836.197H181.731L182.316 842.944C183.82 840.541 185.7 838.682 187.956 837.369C190.24 836.03 192.83 835.356 195.727 835.356C200.601 835.356 204.375 836.798 207.049 839.674C209.723 842.523 211.06 846.94 211.06 852.918V875.09L217.87 876.266V881.545H196.019V876.266L202.829 875.09V853.086C202.829 849.09 202.036 846.253 200.448 844.579C198.888 842.901 196.493 842.064 193.262 842.064C190.895 842.064 188.792 842.635 186.954 843.781C185.143 844.927 183.695 846.493 182.609 848.476V875.09L189.419 876.266V881.545H167.568ZM243.145 899.862C240.972 899.862 238.619 899.554 236.085 898.94C233.55 898.352 231.322 897.541 229.4 896.506L231.531 890.094C233.063 890.905 234.873 891.575 236.962 892.107C239.051 892.639 241.084 892.901 243.061 892.901C246.738 892.901 249.426 891.871 251.125 889.802C252.851 887.734 253.715 884.785 253.715 880.957V876.639C250.707 880.498 246.571 882.425 241.307 882.425C237.63 882.425 234.455 881.515 231.781 879.699C229.108 877.858 227.046 875.3 225.598 872.03C224.178 868.734 223.467 864.918 223.467 860.588V859.708C223.467 854.845 224.178 850.584 225.598 846.927C227.046 843.266 229.108 840.429 231.781 838.416C234.455 836.378 237.658 835.356 241.39 835.356C246.989 835.356 251.278 837.536 254.258 841.897L255.01 836.197H267.544V841.476L261.945 842.691V880.957C261.945 886.824 260.316 891.438 257.057 894.79C253.799 898.172 249.161 899.862 243.145 899.862ZM243.354 875.721C245.833 875.721 247.908 875.159 249.579 874.043C251.25 872.897 252.629 871.292 253.715 869.223V848.352C252.657 846.421 251.278 844.901 249.579 843.781C247.88 842.635 245.833 842.064 243.438 842.064C239.51 842.064 236.572 843.712 234.623 847.008C232.673 850.305 231.698 854.541 231.698 859.708V860.588C231.698 865.142 232.659 868.802 234.581 871.571C236.502 874.335 239.427 875.721 243.354 875.721ZM310.742 882.425C307.066 882.425 303.904 881.515 301.258 879.699C298.641 877.858 296.635 875.3 295.242 872.03C293.85 868.76 293.153 864.948 293.153 860.588V859.708C293.153 854.845 293.85 850.584 295.242 846.927C296.635 843.266 298.654 840.429 301.3 838.416C303.946 836.378 307.121 835.356 310.826 835.356C313.5 835.356 315.853 835.858 317.886 836.867C319.947 837.845 321.702 839.27 323.15 841.142V822.657L316.34 821.485V816.163H331.381V875.09L338.19 876.266V881.545H324.236L323.568 876.137C320.56 880.33 316.285 882.425 310.742 882.425ZM312.831 875.721C315.282 875.721 317.343 875.159 319.014 874.043C320.685 872.927 322.064 871.348 323.15 869.305V848.266C322.092 846.365 320.713 844.858 319.014 843.738C317.315 842.622 315.282 842.064 312.915 842.064C308.987 842.064 306.077 843.699 304.183 846.966C302.317 850.236 301.384 854.485 301.384 859.708V860.588C301.384 865.142 302.317 868.802 304.183 871.571C306.049 874.335 308.932 875.721 312.831 875.721ZM343.58 881.545V876.266L350.389 875.09V842.691L343.58 841.519V836.197H358.62V875.09L365.429 876.266V881.545H343.58ZM349.972 825.004V816.163H358.62V825.004H349.972ZM387.07 882.257C383.728 882.257 381.068 881.279 379.091 879.322C377.141 877.339 376.167 874.184 376.167 869.85V842.313H369.023V836.197H376.167V825.257H384.397V836.197H394.215V842.313H384.397V869.85C384.397 872.03 384.828 873.639 385.692 874.669C386.555 875.704 387.711 876.223 389.159 876.223C390.134 876.223 391.221 876.137 392.418 875.97C393.616 875.777 394.549 875.609 395.217 875.468L396.345 880.875C395.148 881.236 393.672 881.558 391.917 881.837C390.19 882.116 388.575 882.257 387.07 882.257ZM421.37 882.425C417.193 882.425 413.558 881.476 410.466 879.575C407.375 877.648 404.979 874.978 403.281 871.571C401.61 868.163 400.774 864.223 400.774 859.751V857.905C400.774 853.605 401.651 849.76 403.406 846.382C405.189 842.97 407.542 840.287 410.466 838.335C413.419 836.348 416.635 835.356 420.117 835.356C426.189 835.356 430.785 837.202 433.904 840.888C437.053 844.579 438.627 849.498 438.627 855.644V860.798H409.296L409.171 861.008C409.255 865.365 410.355 868.957 412.472 871.781C414.588 874.575 417.555 875.97 421.37 875.97C424.156 875.97 426.593 875.579 428.68 874.798C430.798 873.987 432.625 872.884 434.156 871.485L437.373 876.85C435.756 878.416 433.613 879.742 430.939 880.833C428.291 881.893 425.103 882.425 421.37 882.425ZM409.547 854.343H430.396V853.253C430.396 850.013 429.532 847.3 427.804 845.124C426.078 842.944 423.515 841.854 420.117 841.854C417.36 841.854 415.006 843.026 413.057 845.373C411.107 847.695 409.909 850.614 409.464 854.133L409.547 854.343ZM445.057 881.545V876.266L451.867 875.09V842.691L445.057 841.519V836.197H459.264L459.808 842.107C461.254 839.953 463.119 838.292 465.403 837.116C467.688 835.944 470.336 835.356 473.343 835.356C476.351 835.356 478.926 836.056 481.07 837.455C483.243 838.85 484.873 840.944 485.959 843.738C487.38 841.167 489.258 839.129 491.598 837.622C493.938 836.112 496.667 835.356 499.786 835.356C504.411 835.356 508.06 836.948 510.734 840.137C513.408 843.292 514.742 848.056 514.742 854.429V875.09L521.553 876.266V881.545H499.662V876.266L506.473 875.09V854.343C506.473 849.871 505.707 846.717 504.176 844.871C502.644 843 500.372 842.064 497.365 842.064C494.494 842.064 492.184 843.081 490.43 845.124C488.702 847.133 487.701 849.678 487.423 852.751V875.09L494.233 876.266V881.545H472.381V876.266L479.192 875.09V854.343C479.192 850.099 478.396 846.996 476.809 845.038C475.251 843.056 472.98 842.064 469.998 842.064C467.495 842.064 465.433 842.579 463.816 843.614C462.203 844.648 460.963 846.103 460.098 847.974V875.09L466.909 876.266V881.545H445.057ZM545.912 882.425C541.01 882.425 537.181 880.845 534.421 877.691C531.666 874.532 530.285 869.614 530.285 862.936V842.691L525.104 841.519V836.197H538.516V863.021C538.516 867.854 539.226 871.18 540.646 872.996C542.066 874.811 544.282 875.721 547.29 875.721C550.212 875.721 552.625 875.133 554.516 873.957C556.441 872.755 557.887 871.069 558.862 868.888V842.691L552.804 841.519V836.197H567.093V875.09L572.274 876.266V881.545H559.696L559.153 874.841C557.733 877.27 555.897 879.141 553.639 880.455C551.41 881.768 548.834 882.425 545.912 882.425ZM577.664 881.545V876.266L584.471 875.09V822.657L577.664 821.485V816.163H592.702V858.283L608.702 842.313L608.911 842.064L604.064 841.519V836.197H623.534V841.519L617.728 842.609L605.027 855.433L620.612 875.257L627.127 876.266V881.545H606.7V876.266L611.294 875.721L611.17 875.554L599.722 860.755L592.702 867.841V875.09L599.512 876.266V881.545H577.664ZM645.677 882.425C640.971 882.425 637.391 881.279 634.939 878.987C632.488 876.669 631.264 873.412 631.264 869.223C631.264 864.918 633.018 861.468 636.526 858.871C640.039 856.245 644.911 854.931 651.149 854.931H659.213V850.489C659.213 847.751 658.379 845.627 656.706 844.116C655.063 842.609 652.736 841.854 649.728 841.854C647.838 841.854 646.19 842.09 644.8 842.566C643.405 843.013 642.139 843.644 640.997 844.451L640.12 850.781H633.771V840.386C637.865 837.034 643.226 835.356 649.857 835.356C655.341 835.356 659.645 836.669 662.764 839.296C665.882 841.923 667.444 845.682 667.444 850.571V872.408C667.444 872.996 667.444 873.566 667.444 874.124C667.47 874.687 667.512 875.245 667.568 875.802L671.957 876.266V881.545H660.133C659.658 879.253 659.367 877.172 659.256 875.3C657.669 877.339 655.675 879.043 653.279 880.412C650.914 881.755 648.377 882.425 645.677 882.425ZM646.888 875.511C649.617 875.511 652.111 874.854 654.366 873.541C656.625 872.227 658.238 870.648 659.213 868.802V860.588H650.858C647.068 860.588 644.227 861.498 642.336 863.313C640.441 865.129 639.495 867.154 639.495 869.39C639.495 873.468 641.959 875.511 646.888 875.511ZM678.349 881.545V876.266L685.155 875.09V842.691L678.349 841.519V836.197H692.509L693.095 842.944C694.597 840.541 696.479 838.682 698.734 837.369C701.018 836.03 703.611 835.356 706.507 835.356C711.38 835.356 715.153 836.798 717.827 839.674C720.501 842.523 721.84 846.94 721.84 852.918V875.09L728.646 876.266V881.545H706.798V876.266L713.609 875.09V853.086C713.609 849.09 712.813 846.253 711.226 844.579C709.669 842.901 707.273 842.064 704.043 842.064C701.673 842.064 699.572 842.635 697.733 843.781C695.923 844.927 694.473 846.493 693.386 848.476V875.09L700.197 876.266V881.545H678.349ZM737.378 861.511V820.519H745.609V861.511H737.378ZM737.378 881.545V872.996H745.609V881.545H737.378Z" fill="#858585"/>
</svg>
